<svg xmlns="http://www.w3.org/2000/svg" width="375" height="812" fill="#fff" stroke="#000" stroke-width="1.5" font-family="-apple-system, system-ui, sans-serif" viewBox="0 0 375 812"><rect width="375" height="812" x="0" y="0"/><line x1="0" x2="375" y1="56" y2="56"/><polyline fill="none" points="28 20 20 28 28 36"/><text x="44" y="33" fill="#000" stroke="none" font-size="14" font-weight="600">PAP-14557</text><circle cx="343" cy="28" r="12" fill="#e6e6e6"/><text x="16" y="92" fill="#000" stroke="none" font-size="20" font-weight="700">Nightly model comparison sweep</text><g transform="translate(16,108)"><rect width="96" height="24" rx="12"/><text x="48" y="16" fill="#000" stroke="none" font-size="12" text-anchor="middle">In Progress</text></g><g transform="translate(16,148)"><rect width="344" height="112" rx="8"/><circle cx="32" cy="32" r="12"/><line x1="32" x2="32" y1="32" y2="24"/><line x1="32" x2="38" y1="32" y2="32"/><text x="56" y="28" fill="#000" stroke="none" font-size="14" font-weight="600">Waiting on monitor — in 2h 12m</text><text x="56" y="48" fill="#666" stroke="none" font-size="12">Thu Jul 17, 4:08 PM · Attempt 1</text><g transform="translate(56,64)"><rect width="104" height="32" rx="4"/><text x="52" y="21" fill="#000" stroke="none" font-size="14" text-anchor="middle">Check now</text></g></g><g transform="translate(16,292)"><line x1="0" x2="344" y1="8" y2="8" stroke="#666"/><line x1="0" x2="344" y1="24" y2="24" stroke="#666"/><line x1="0" x2="240" y1="40" y2="40" stroke="#666"/></g><g transform="translate(16,356)"><rect width="344" height="120" rx="8"/><circle cx="28" cy="28" r="12" fill="#e6e6e6"/><text x="48" y="24" fill="#000" stroke="none" font-size="14" font-weight="600">Senior Engineer Fable</text><text x="48" y="40" fill="#666" stroke="none" font-size="12">15m ago</text><line x1="16" x2="328" y1="60" y2="60" stroke="#666"/><line x1="16" x2="328" y1="76" y2="76" stroke="#666"/><line x1="16" x2="224" y1="92" y2="92" stroke="#666"/></g><g transform="translate(16,500)"><rect width="344" height="48" rx="8"/><text x="16" y="29" fill="#000" stroke="none" font-size="14" font-weight="600">Properties</text><circle cx="240" cy="24" r="7"/><line x1="240" x2="240" y1="24" y2="19"/><line x1="240" x2="244" y1="24" y2="24"/><text x="252" y="28" fill="#666" stroke="none" font-size="12">in 2h 12m</text><polyline fill="none" points="324 20 332 28 324 36"/></g><g transform="translate(16,624)"><rect width="344" height="56" rx="8"/><circle cx="28" cy="28" r="10"/><line x1="28" x2="28" y1="28" y2="21"/><line x1="28" x2="33" y1="28" y2="28"/><text x="48" y="24" fill="#000" stroke="none" font-size="14" font-weight="600">Resumes in 2h 12m</text><text x="48" y="42" fill="#666" stroke="none" font-size="12">Jul 17, 4:08 PM · Attempt 1</text><text x="288" y="32" fill="#000" stroke="none" font-size="12">Check now</text></g><g transform="translate(16,696)"><rect width="344" height="96" rx="8"/><text x="16" y="28" fill="#666" stroke="none" font-size="14">Reply…</text><g transform="translate(16,48)"><rect width="32" height="32" rx="4"/><line x1="10" x2="22" y1="22" y2="10"/></g><g transform="translate(240,48)"><rect width="88" height="32" fill="#000" rx="4"/><text x="44" y="21" fill="#fff" stroke="none" font-size="14" text-anchor="middle">Send</text></g></g><g data-region="annotations"><rect width="360" height="128" x="8" y="140" fill="none" stroke="#d33" stroke-dasharray="6 3"/><g transform="translate(360,140)"><circle cx="0" cy="0" r="12" fill="#fff" stroke="#d33" stroke-dasharray="4 2"/><text x="0" y="4" fill="#d33" stroke="none" font-size="12" font-weight="700" text-anchor="middle">1</text></g><rect width="112" height="32" x="224" y="508" fill="none" stroke="#d33" stroke-dasharray="6 3"/><g transform="translate(216,504)"><circle cx="0" cy="0" r="12" fill="#fff" stroke="#d33" stroke-dasharray="4 2"/><text x="0" y="4" fill="#d33" stroke="none" font-size="12" font-weight="700" text-anchor="middle">2</text></g><rect width="360" height="72" x="8" y="616" fill="none" stroke="#d33" stroke-dasharray="6 3"/><g transform="translate(360,616)"><circle cx="0" cy="0" r="12" fill="#fff" stroke="#d33" stroke-dasharray="4 2"/><text x="0" y="4" fill="#d33" stroke="none" font-size="12" font-weight="700" text-anchor="middle">3</text></g></g></svg>