<svg xmlns="http://www.w3.org/2000/svg" width="1280" height="800" fill="#fff" stroke="#000" stroke-width="1.5" font-family="-apple-system, system-ui, sans-serif" viewBox="0 0 1280 800"><rect width="1280" height="800" x="0" y="0"/><line x1="0" x2="1280" y1="56" y2="56"/><text x="24" y="36" fill="#666" stroke="none" font-size="14">Issues /</text><text x="88" y="36" fill="#000" stroke="none" font-size="14" font-weight="600">PAP-14557</text><circle cx="1240" cy="28" r="12" fill="#e6e6e6"/><line x1="880" x2="880" y1="56" y2="800"/><text x="48" y="112" fill="#000" stroke="none" font-size="28" font-weight="700">Nightly model comparison sweep</text><g transform="translate(48,128)"><rect width="104" height="24" rx="12"/><text x="52" y="16" fill="#000" stroke="none" font-size="12" text-anchor="middle">In Progress</text></g><g transform="translate(48,168)"><rect width="784" height="88" rx="8"/><circle cx="40" cy="44" r="14"/><line x1="40" x2="40" y1="44" y2="35"/><line x1="40" x2="47" y1="44" y2="44"/><text x="72" y="40" fill="#000" stroke="none" font-size="14" font-weight="600">Waiting on monitor — resumes in 2h 12m</text><text x="72" y="62" fill="#666" stroke="none" font-size="12">Thu Jul 17, 4:08 PM (your time) · Attempt 1 · Watching: vercel-deploy</text><g transform="translate(568,28)"><rect width="104" height="32" rx="4"/><text x="52" y="21" fill="#000" stroke="none" font-size="14" text-anchor="middle">Check now</text></g><g transform="translate(688,28)"><rect width="72" height="32" rx="4"/><text x="36" y="21" fill="#000" stroke="none" font-size="14" text-anchor="middle">Edit</text></g></g><g transform="translate(48,288)"><line x1="0" x2="784" y1="8" y2="8" stroke="#666"/><line x1="0" x2="784" y1="24" y2="24" stroke="#666"/><line x1="0" x2="520" y1="40" y2="40" stroke="#666"/></g><line x1="48" x2="832" y1="360" y2="360"/><text x="48" y="392" fill="#000" stroke="none" font-size="14" font-weight="600">Activity</text><g transform="translate(48,408)"><rect width="784" height="136" rx="8"/><circle cx="32" cy="32" r="16" fill="#e6e6e6"/><text x="56" y="28" fill="#000" stroke="none" font-size="14" font-weight="600">Senior Engineer Fable</text><text x="720" y="28" fill="#666" stroke="none" font-size="12">15m ago</text><line x1="56" x2="744" y1="56" y2="56" stroke="#666"/><line x1="56" x2="744" y1="72" y2="72" stroke="#666"/><line x1="56" x2="744" y1="88" y2="88" stroke="#666"/><line x1="56" x2="480" y1="104" y2="104" stroke="#666"/></g><text x="440" y="584" fill="#666" stroke="none" font-size="12" text-anchor="middle">⌄ thread continues — see screen 02 for the composer</text><text x="904" y="96" fill="#666" stroke="none" font-size="12">PROPERTIES</text><text x="904" y="136" fill="#666" stroke="none" font-size="12">Status</text><text x="1032" y="136" fill="#000" stroke="none" font-size="14">In Progress</text><text x="904" y="176" fill="#666" stroke="none" font-size="12">Priority</text><text x="1032" y="176" fill="#000" stroke="none" font-size="14">Medium</text><text x="904" y="216" fill="#666" stroke="none" font-size="12">Assignee</text><circle cx="1040" cy="212" r="8" fill="#e6e6e6"/><text x="1056" y="216" fill="#000" stroke="none" font-size="14">Fable</text><text x="904" y="256" fill="#666" stroke="none" font-size="12">Approvers</text><text x="1032" y="256" fill="#666" stroke="none" font-size="14">None</text><text x="904" y="304" fill="#666" stroke="none" font-size="12">Monitor</text><circle cx="1040" cy="300" r="7"/><line x1="1040" x2="1040" y1="300" y2="295"/><line x1="1040" x2="1044" y1="300" y2="300"/><text x="1056" y="304" fill="#000" stroke="none" font-size="14" font-weight="600">In 2h 12m</text><text x="1056" y="324" fill="#666" stroke="none" font-size="12">Jul 17, 4:08 PM · Attempt 1</text><text x="904" y="376" fill="#666" stroke="none" font-size="12">Watchdog</text><text x="1032" y="376" fill="#666" stroke="none" font-size="14">None</text><g data-region="annotations"><rect width="800" height="104" x="40" y="160" fill="none" stroke="#d33" stroke-dasharray="6 3"/><g transform="translate(32,152)"><circle cx="0" cy="0" r="12" fill="#fff" stroke="#d33" stroke-dasharray="4 2"/><text x="0" y="4" fill="#d33" stroke="none" font-size="12" font-weight="700" text-anchor="middle">1</text></g><rect width="376" height="48" x="896" y="284" fill="none" stroke="#d33" stroke-dasharray="6 3"/><g transform="translate(888,276)"><circle cx="0" cy="0" r="12" fill="#fff" stroke="#d33" stroke-dasharray="4 2"/><text x="0" y="4" fill="#d33" stroke="none" font-size="12" font-weight="700" text-anchor="middle">2</text></g></g></svg>