<svg xmlns="http://www.w3.org/2000/svg" width="1280" height="800" fill="#fff" stroke="#000" stroke-width="1.5" font-family="-apple-system, system-ui, sans-serif" viewBox="0 0 1280 800"><rect width="1280" height="800" x="0" y="0"/><line x1="0" x2="1280" y1="56" y2="56"/><text x="24" y="36" fill="#666" stroke="none" font-size="14">Issues /</text><text x="88" y="36" fill="#000" stroke="none" font-size="14" font-weight="600">PAP-14557</text><circle cx="1240" cy="28" r="12" fill="#e6e6e6"/><line x1="880" x2="880" y1="56" y2="800"/><text x="904" y="96" fill="#666" stroke="none" font-size="12">PROPERTIES</text><text x="904" y="136" fill="#666" stroke="none" font-size="12">Status</text><text x="1032" y="136" fill="#000" stroke="none" font-size="14">In Progress</text><text x="904" y="184" fill="#666" stroke="none" font-size="12">Monitor</text><circle cx="1040" cy="180" r="7"/><line x1="1040" x2="1040" y1="180" y2="175"/><line x1="1040" x2="1044" y1="180" y2="180"/><text x="1056" y="184" fill="#000" stroke="none" font-size="14" font-weight="600">In 2h 12m</text><text x="1056" y="204" fill="#666" stroke="none" font-size="12">Jul 17, 4:08 PM · Attempt 1</text><text x="440" y="76" fill="#666" stroke="none" font-size="12" text-anchor="middle">⌃ earlier comments</text><g transform="translate(48,96)"><rect width="784" height="176" rx="8"/><circle cx="32" cy="32" r="16" fill="#e6e6e6"/><text x="56" y="28" fill="#000" stroke="none" font-size="14" font-weight="600">Senior Engineer Fable</text><text x="720" y="28" fill="#666" stroke="none" font-size="12">15m ago</text><line x1="56" x2="744" y1="56" y2="56" stroke="#666"/><line x1="56" x2="744" y1="72" y2="72" stroke="#666"/><line x1="56" x2="744" y1="88" y2="88" stroke="#666"/><text x="56" y="120" fill="#000" stroke="none" font-size="14" font-weight="600">Next action (armed):</text><line x1="216" x2="744" y1="116" y2="116" stroke="#666"/><line x1="56" x2="560" y1="140" y2="140" stroke="#666"/></g><g transform="translate(48,304)"><rect width="384" height="64" rx="8"/><polyline fill="none" points="24 24 16 32 24 40"/><text x="40" y="28" fill="#666" stroke="none" font-size="12">Previous · PAP-14544</text><text x="40" y="48" fill="#000" stroke="none" font-size="14">Phase 3 — rescore + gap re-runs…</text></g><g transform="translate(48,408)"><rect width="784" height="64" rx="8"/><circle cx="32" cy="32" r="12"/><line x1="32" x2="32" y1="32" y2="24"/><line x1="32" x2="38" y1="32" y2="32"/><text x="56" y="28" fill="#000" stroke="none" font-size="14" font-weight="600">Resumes in 2h 12m</text><text x="56" y="48" fill="#666" stroke="none" font-size="12">Thu Jul 17, 4:08 PM · Attempt 1 · Watching: vercel-deploy</text><g transform="translate(656,16)"><rect width="112" height="32" rx="4"/><text x="56" y="21" fill="#000" stroke="none" font-size="14" text-anchor="middle">Check now</text></g></g><g transform="translate(48,496)"><rect width="784" height="152" rx="8"/><text x="16" y="36" fill="#666" stroke="none" font-size="14">Reply…</text><g transform="translate(16,104)"><rect width="32" height="32" rx="4"/><line x1="10" x2="22" y1="22" y2="10"/></g><g transform="translate(56,104)"><rect width="128" height="32" rx="16"/><text x="16" y="21" fill="#000" stroke="none" font-size="12">Agent mode</text><polyline fill="none" points="100 14 106 20 112 14"/></g><g transform="translate(432,104)"><rect width="192" height="32" rx="16"/><text x="96" y="21" fill="#000" stroke="none" font-size="12" text-anchor="middle">Senior Engineer Fable</text></g><g transform="translate(640,104)"><rect width="128" height="32" fill="#000" rx="4"/><text x="64" y="21" fill="#fff" stroke="none" font-size="14" text-anchor="middle">Send</text></g></g><text x="48" y="676" fill="#666" stroke="none" font-size="12">Sending a reply wakes the agent now — before the scheduled check.</text><g data-region="annotations"><rect width="800" height="80" x="40" y="400" fill="none" stroke="#d33" stroke-dasharray="6 3"/><g transform="translate(32,392)"><circle cx="0" cy="0" r="12" fill="#fff" stroke="#d33" stroke-dasharray="4 2"/><text x="0" y="4" fill="#d33" stroke="none" font-size="12" font-weight="700" text-anchor="middle">1</text></g><rect width="472" height="24" x="40" y="660" fill="none" stroke="#d33" stroke-dasharray="6 3"/><g transform="translate(32,656)"><circle cx="0" cy="0" r="12" fill="#fff" stroke="#d33" stroke-dasharray="4 2"/><text x="0" y="4" fill="#d33" stroke="none" font-size="12" font-weight="700" text-anchor="middle">2</text></g></g></svg>