<svg xmlns="http://www.w3.org/2000/svg" width="1280" height="800" fill="#fff" stroke="#000" stroke-width="1.5" font-family="-apple-system, system-ui, sans-serif" viewBox="0 0 1280 800"><rect width="1280" height="800" x="0" y="0"/><text x="48" y="56" fill="#000" stroke="none" font-size="20" font-weight="600">Monitor row — state matrix</text><text x="48" y="80" fill="#666" stroke="none" font-size="12">One copy system across banner, composer strip and properties row. Relative time always leads.</text><g transform="translate(48,112)"><rect width="576" height="112" rx="8"/><text x="16" y="28" fill="#666" stroke="none" font-size="12">SCHEDULED · UNDER 1 HOUR</text><text x="16" y="72" fill="#666" stroke="none" font-size="12">Monitor</text><circle cx="152" cy="68" r="7"/><line x1="152" x2="152" y1="68" y2="63"/><line x1="152" x2="156" y1="68" y2="68"/><text x="168" y="72" fill="#000" stroke="none" font-size="14" font-weight="600">In 24m</text><text x="168" y="92" fill="#666" stroke="none" font-size="12">Today, 2:20 PM</text></g><g transform="translate(656,112)"><rect width="576" height="112" rx="8"/><text x="16" y="28" fill="#666" stroke="none" font-size="12">SCHEDULED · UNDER 24 HOURS</text><text x="16" y="72" fill="#666" stroke="none" font-size="12">Monitor</text><circle cx="152" cy="68" r="7"/><line x1="152" x2="152" y1="68" y2="63"/><line x1="152" x2="156" y1="68" y2="68"/><text x="168" y="72" fill="#000" stroke="none" font-size="14" font-weight="600">In 2h 12m</text><text x="168" y="92" fill="#666" stroke="none" font-size="12">Today, 4:08 PM</text></g><g transform="translate(48,248)"><rect width="576" height="112" rx="8"/><text x="16" y="28" fill="#666" stroke="none" font-size="12">SCHEDULED · BEYOND TODAY</text><text x="16" y="72" fill="#666" stroke="none" font-size="12">Monitor</text><circle cx="152" cy="68" r="7"/><line x1="152" x2="152" y1="68" y2="63"/><line x1="152" x2="156" y1="68" y2="68"/><text x="168" y="72" fill="#000" stroke="none" font-size="14" font-weight="600">In 3d</text><text x="168" y="92" fill="#666" stroke="none" font-size="12">Mon Jul 20, 9:00 AM</text></g><g transform="translate(656,248)"><rect width="576" height="112" rx="8"/><text x="16" y="28" fill="#666" stroke="none" font-size="12">RETRYING · ATTEMPT &gt; 1</text><text x="16" y="72" fill="#666" stroke="none" font-size="12">Monitor</text><circle cx="152" cy="68" r="7"/><line x1="152" x2="152" y1="68" y2="63"/><line x1="152" x2="156" y1="68" y2="68"/><text x="168" y="72" fill="#000" stroke="none" font-size="14" font-weight="600">In 2h 12m</text><text x="168" y="92" fill="#666" stroke="none" font-size="12">Today, 4:08 PM ·</text><text x="272" y="92" fill="#000" stroke="none" font-size="12" font-weight="700">Attempt 3</text></g><g transform="translate(48,384)"><rect width="576" height="112" rx="8"/><text x="16" y="28" fill="#666" stroke="none" font-size="12">DUE NOW</text><text x="16" y="72" fill="#666" stroke="none" font-size="12">Monitor</text><circle cx="152" cy="68" r="7" fill="#e6e6e6"/><line x1="152" x2="152" y1="68" y2="63"/><line x1="152" x2="156" y1="68" y2="68"/><text x="168" y="72" fill="#000" stroke="none" font-size="14" font-weight="600">Due now</text><text x="168" y="92" fill="#666" stroke="none" font-size="12">checking momentarily…</text></g><g transform="translate(656,384)"><rect width="576" height="112" rx="8"/><text x="16" y="28" fill="#666" stroke="none" font-size="12">OVERDUE</text><text x="16" y="72" fill="#666" stroke="none" font-size="12">Monitor</text><circle cx="152" cy="68" r="7" fill="#e6e6e6"/><line x1="152" x2="152" y1="68" y2="63"/><line x1="152" x2="156" y1="68" y2="68"/><text x="168" y="72" fill="#000" stroke="none" font-size="14" font-weight="600">Overdue by 18m</text><text x="168" y="92" fill="#666" stroke="none" font-size="12">Jul 17, 1:38 PM · fires on next tick</text></g><g transform="translate(48,520)"><rect width="576" height="112" rx="8"/><text x="16" y="28" fill="#666" stroke="none" font-size="12">CLEARED</text><text x="16" y="72" fill="#666" stroke="none" font-size="12">Monitor</text><text x="168" y="72" fill="#666" stroke="none" font-size="14">Cleared</text><text x="168" y="92" fill="#666" stroke="none" font-size="12">2h ago · after attempt 2</text></g><g transform="translate(656,520)"><rect width="576" height="112" rx="8"/><text x="16" y="28" fill="#666" stroke="none" font-size="12">NONE</text><text x="16" y="72" fill="#666" stroke="none" font-size="12">Monitor</text><text x="144" y="72" fill="#666" stroke="none" font-size="14">None</text></g><text x="48" y="688" fill="#000" stroke="none" font-size="14" font-weight="600">Copy rules</text><text x="48" y="712" fill="#666" stroke="none" font-size="12">&lt; 1h → “In 24m” · &lt; 24h → “In 2h 12m” (two units, not “in 2h”) · beyond → “In 3d” + weekday date · past due → “Overdue by …”.</text><text x="48" y="732" fill="#666" stroke="none" font-size="12">Absolute time says “Today” when it is today; adds the year only when it is not the current year. Banner + strip render only in scheduled / due / overdue states.</text></svg>