<svg xmlns="http://www.w3.org/2000/svg" width="1280" height="304" fill="#fff" stroke="#000" stroke-width="1.5" font-family="-apple-system, system-ui, sans-serif" viewBox="0 0 1280 304"><rect width="1280" height="304" x="0" y="0"/><text x="48" y="40" fill="#000" stroke="none" font-size="14" font-weight="600">One monitor state, three surfaces — banner (top), strip (composer), row (properties) — all fed by the same copy rules (04).</text><g transform="translate(48,72)"><rect width="240" height="160" rx="4"/><line x1="0" x2="240" y1="24" y2="24"/><rect width="144" height="8" x="16" y="40" fill="#e6e6e6" stroke="none"/><rect width="208" height="32" x="16" y="60" fill="#e6e6e6" stroke="none" rx="4"/><circle cx="32" cy="76" r="8" fill="#fff"/><line x1="16" x2="224" y1="112" y2="112" stroke="#666"/><line x1="16" x2="224" y1="128" y2="128" stroke="#666"/><line x1="16" x2="160" y1="144" y2="144" stroke="#666"/></g><text x="168" y="264" fill="#000" stroke="none" font-size="12" text-anchor="middle">01 · Task page top — banner</text><line x1="296" x2="336" y1="152" y2="152"/><polygon fill="#000" stroke="none" points="336 152 326 146 326 158"/><g transform="translate(344,72)"><rect width="240" height="160" rx="4"/><line x1="16" x2="224" y1="24" y2="24" stroke="#666"/><line x1="16" x2="224" y1="40" y2="40" stroke="#666"/><line x1="16" x2="160" y1="56" y2="56" stroke="#666"/><rect width="208" height="24" x="16" y="80" fill="#e6e6e6" stroke="none" rx="4"/><circle cx="30" cy="92" r="6" fill="#fff"/><rect width="208" height="32" x="16" y="112" rx="4"/></g><text x="464" y="264" fill="#000" stroke="none" font-size="12" text-anchor="middle">02 · Above the composer — strip</text><line x1="592" x2="632" y1="152" y2="152"/><polygon fill="#000" stroke="none" points="632 152 622 146 622 158"/><g transform="translate(640,72)"><rect width="240" height="160" rx="4"/><rect width="64" height="8" x="16" y="16" fill="#e6e6e6" stroke="none"/><rect width="104" height="8" x="120" y="16" fill="#e6e6e6" stroke="none"/><rect width="64" height="8" x="16" y="40" fill="#e6e6e6" stroke="none"/><rect width="80" height="8" x="120" y="36" fill="#000" stroke="none"/><rect width="104" height="6" x="120" y="50" fill="#e6e6e6" stroke="none"/><rect width="104" height="72" x="120" y="72" rx="4"/><rect width="80" height="6" x="132" y="84" fill="#e6e6e6" stroke="none"/><rect width="80" height="6" x="132" y="98" fill="#e6e6e6" stroke="none"/><rect width="56" height="6" x="132" y="112" fill="#e6e6e6" stroke="none"/></g><text x="760" y="264" fill="#000" stroke="none" font-size="12" text-anchor="middle">03 · Properties row + tooltip</text><line x1="888" x2="928" y1="152" y2="152"/><polygon fill="#000" stroke="none" points="928 152 918 146 918 158"/><g transform="translate(936,72)"><rect width="240" height="160" rx="4"/><rect width="96" height="56" x="16" y="16" rx="4"/><rect width="96" height="56" x="128" y="16" rx="4"/><rect width="96" height="56" x="16" y="88" rx="4"/><rect width="96" height="56" x="128" y="88" rx="4"/></g><text x="1056" y="264" fill="#000" stroke="none" font-size="12" text-anchor="middle">04 · State matrix + copy rules</text></svg>